<svg width="21" height="19" viewBox="0 0 21 19" fill="none" xmlns="http://www.w3.org/2000/svg">
<mask id="mask0_170_5964" style="mask-type:luminance" maskUnits="userSpaceOnUse" x="0" y="0" width="21" height="19">
<path d="M20.9964 0.169922H0.00390625V18.8299H20.9964V0.169922Z" fill="white"/>
</mask>
<g mask="url(#mask0_170_5964)">
<mask id="mask1_170_5964" style="mask-type:alpha" maskUnits="userSpaceOnUse" x="4" y="0" width="13" height="19">
<path d="M15.3481 10.5869L15.9264 7.23536H12.3088V5.0604C12.3088 4.14348 12.8142 3.24973 14.4344 3.24973H16.0793V0.396394C16.0793 0.396394 14.5865 0.169922 13.1595 0.169922C10.1799 0.169922 8.23259 1.77504 8.23259 4.68094V7.23536H4.92065V10.5869H8.23259V18.689C8.89668 18.7816 9.57734 18.8299 10.2707 18.8299C10.9641 18.8299 11.6447 18.7816 12.3088 18.689V10.5869H15.3481Z" fill="black"/>
</mask>
<g mask="url(#mask1_170_5964)">
<path d="M15.3481 10.5869L15.9264 7.23536H12.3088V5.0604C12.3088 4.14348 12.8142 3.24973 14.4344 3.24973H16.0793V0.396394C16.0793 0.396394 14.5865 0.169922 13.1595 0.169922C10.1799 0.169922 8.23259 1.77504 8.23259 4.68094V7.23536H4.92065V10.5869H8.23259V18.689C8.89668 18.7816 9.57734 18.8299 10.2707 18.8299C10.9641 18.8299 11.6447 18.7816 12.3088 18.689V10.5869H15.3481Z" fill="white"/>
</g>
</g>
</svg>
