<svg width="19" height="20" viewBox="0 0 19 20" fill="none" xmlns="http://www.w3.org/2000/svg">
<mask id="mask0_170_5972" style="mask-type:alpha" maskUnits="userSpaceOnUse" x="0" y="0" width="19" height="20">
<path d="M9.44486 5.18555C6.85225 5.18555 4.7041 7.29666 4.7041 9.92631C4.7041 12.5559 6.81521 14.6671 9.44486 14.6671C12.0744 14.6671 14.1856 12.5189 14.1856 9.92631C14.1856 7.33369 12.0374 5.18555 9.44486 5.18555ZM9.44486 12.9633C7.77818 12.9633 6.4078 11.5929 6.4078 9.92631C6.4078 8.25962 7.77818 6.88925 9.44486 6.88925C11.1115 6.88925 12.4818 8.25962 12.4818 9.92631C12.4818 11.5929 11.1115 12.9633 9.44486 12.9633Z" fill="black"/>
<path d="M14.371 6.14815C14.9642 6.14815 15.4451 5.66728 15.4451 5.07407C15.4451 4.48088 14.9642 4 14.371 4C13.7778 4 13.2969 4.48088 13.2969 5.07407C13.2969 5.66728 13.7778 6.14815 14.371 6.14815Z" fill="black"/>
<path d="M17.1482 2.29586C16.1852 1.29586 14.8148 0.777344 13.2593 0.777344H5.62964C2.40742 0.777344 0.259277 2.9255 0.259277 6.14772V13.7404C0.259277 15.3329 0.777796 16.7033 1.81483 17.7032C2.81482 18.6662 4.14816 19.1478 5.66668 19.1478H13.2223C14.8148 19.1478 16.1481 18.6292 17.1112 17.7032C18.1111 16.7403 18.6297 15.37 18.6297 13.7774V6.14772C18.6297 4.59217 18.1111 3.25883 17.1482 2.29586ZM17.0001 13.7774C17.0001 14.9255 16.5926 15.8514 15.9259 16.481C15.2593 17.1107 14.3333 17.444 13.2223 17.444H5.66668C4.55557 17.444 3.62964 17.1107 2.96298 16.481C2.29631 15.8144 1.96298 14.8885 1.96298 13.7404V6.14772C1.96298 5.03661 2.29631 4.11068 2.96298 3.44402C3.59261 2.81438 4.55557 2.48105 5.66668 2.48105H13.2963C14.4074 2.48105 15.3333 2.81438 16 3.48106C16.6296 4.14772 17.0001 5.07365 17.0001 6.14772V13.7774Z" fill="black"/>
</mask>
<g mask="url(#mask0_170_5972)">
<path d="M9.44486 5.18555C6.85225 5.18555 4.7041 7.29666 4.7041 9.92631C4.7041 12.5559 6.81521 14.6671 9.44486 14.6671C12.0744 14.6671 14.1856 12.5189 14.1856 9.92631C14.1856 7.33369 12.0374 5.18555 9.44486 5.18555ZM9.44486 12.9633C7.77818 12.9633 6.4078 11.5929 6.4078 9.92631C6.4078 8.25962 7.77818 6.88925 9.44486 6.88925C11.1115 6.88925 12.4818 8.25962 12.4818 9.92631C12.4818 11.5929 11.1115 12.9633 9.44486 12.9633Z" fill="white"/>
<path d="M14.371 6.14815C14.9642 6.14815 15.4451 5.66728 15.4451 5.07407C15.4451 4.48088 14.9642 4 14.371 4C13.7778 4 13.2969 4.48088 13.2969 5.07407C13.2969 5.66728 13.7778 6.14815 14.371 6.14815Z" fill="white"/>
<path d="M17.1482 2.29586C16.1852 1.29586 14.8148 0.777344 13.2593 0.777344H5.62964C2.40742 0.777344 0.259277 2.9255 0.259277 6.14772V13.7404C0.259277 15.3329 0.777796 16.7033 1.81483 17.7032C2.81482 18.6662 4.14816 19.1478 5.66668 19.1478H13.2223C14.8148 19.1478 16.1481 18.6292 17.1112 17.7032C18.1111 16.7403 18.6297 15.37 18.6297 13.7774V6.14772C18.6297 4.59217 18.1111 3.25883 17.1482 2.29586ZM17.0001 13.7774C17.0001 14.9255 16.5926 15.8514 15.9259 16.481C15.2593 17.1107 14.3333 17.444 13.2223 17.444H5.66668C4.55557 17.444 3.62964 17.1107 2.96298 16.481C2.29631 15.8144 1.96298 14.8885 1.96298 13.7404V6.14772C1.96298 5.03661 2.29631 4.11068 2.96298 3.44402C3.59261 2.81438 4.55557 2.48105 5.66668 2.48105H13.2963C14.4074 2.48105 15.3333 2.81438 16 3.48106C16.6296 4.14772 17.0001 5.07365 17.0001 6.14772V13.7774Z" fill="white"/>
</g>
</svg>
