<svg width="19" height="17" viewBox="0 0 19 17" fill="none" xmlns="http://www.w3.org/2000/svg">
<mask id="mask0_170_5981" style="mask-type:alpha" maskUnits="userSpaceOnUse" x="0" y="0" width="19" height="17">
<path d="M1.10517 5.62307H4.79702V16.7331H1.10517V5.62307ZM2.97581 0.267578C1.71224 0.267578 0.886719 1.09712 0.886719 2.18592C0.886719 3.25233 1.68808 4.10598 2.92749 4.10598H2.95104C4.23877 4.10598 5.0407 3.25228 5.0407 2.18592C5.01654 1.09712 4.2388 0.267578 2.97581 0.267578ZM13.8615 5.36209C11.9019 5.36209 11.0239 6.43998 10.5342 7.19591V5.62307H6.8412C6.89009 6.66532 6.8412 16.7331 6.8412 16.7331H10.5342V10.5284C10.5342 10.1961 10.5583 9.86509 10.6555 9.62701C10.9228 8.96367 11.5304 8.27662 12.5496 8.27662C13.8869 8.27662 14.4209 9.29591 14.4209 10.7887V16.733H18.1133V10.3624C18.1133 6.94986 16.2921 5.36209 13.8615 5.36209Z" fill="black"/>
</mask>
<g mask="url(#mask0_170_5981)">
<path d="M1.10517 5.62307H4.79702V16.7331H1.10517V5.62307ZM2.97581 0.267578C1.71224 0.267578 0.886719 1.09712 0.886719 2.18592C0.886719 3.25233 1.68808 4.10598 2.92749 4.10598H2.95104C4.23877 4.10598 5.0407 3.25228 5.0407 2.18592C5.01654 1.09712 4.2388 0.267578 2.97581 0.267578ZM13.8615 5.36209C11.9019 5.36209 11.0239 6.43998 10.5342 7.19591V5.62307H6.8412C6.89009 6.66532 6.8412 16.7331 6.8412 16.7331H10.5342V10.5284C10.5342 10.1961 10.5583 9.86509 10.6555 9.62701C10.9228 8.96367 11.5304 8.27662 12.5496 8.27662C13.8869 8.27662 14.4209 9.29591 14.4209 10.7887V16.733H18.1133V10.3624C18.1133 6.94986 16.2921 5.36209 13.8615 5.36209Z" fill="white"/>
</g>
</svg>
